<?xml version="1.0" encoding="UTF-8" standalone="no"?><!DOCTYPE svg PUBLIC "-//W3C//DTD SVG 1.1//EN" "http://www.w3.org/Graphics/SVG/1.1/DTD/svg11.dtd"><svg width="100%" height="100%" viewBox="0 0 333 295" version="1.1" xmlns="http://www.w3.org/2000/svg" xmlns:xlink="http://www.w3.org/1999/xlink" xml:space="preserve" xmlns:serif="http://www.serif.com/" style="fill-rule:evenodd;clip-rule:evenodd;stroke-miterlimit:10;"><rect id="Artboard1" x="0" y="0" width="332.549" height="294.706" style="fill:none;"/><g id="Layer-1" serif:id="Layer 1"><path d="M224.943,225.056l25.914,25.823c64.963,-65.194 29.371,-142.924 -0.153,-172.448c-47.343,-47.343 -125.257,-47.343 -172.6,0c-47.343,47.343 -47.343,125.258 0,172.601c0.051,0.051 0.102,0.102 0.153,0.153l25.823,-25.914c29.327,38.432 83.032,45.679 120.863,-0.215Z" style="fill:none;stroke:#5e35b1;stroke-width:5px;"/><g transform="matrix(1,0,0,1,224.943,76.982)"><g transform="matrix(0.787946,0.615745,-0.615745,0.787946,54.4816,126.614)"><text x="-114.48px" y="156.906px" style="font-family:'ConeWedge', 'Cone Wedge';font-size:36px;fill:#5e35b1;">D</text></g><g transform="matrix(0.933317,0.359054,-0.359054,0.933317,45.07,72.3095)"><text x="-94.065px" y="171.994px" style="font-family:'ConeWedge', 'Cone Wedge';font-size:36px;fill:#5e35b1;">e</text></g><g transform="matrix(0.999878,0.0156328,-0.0156328,0.999878,2.34604,30.1831)"><text x="-74.501px" y="179.654px" style="font-family:'ConeWedge', 'Cone Wedge';font-size:36px;fill:#5e35b1;">c</text></g><g transform="matrix(0.923703,-0.383109,0.383109,0.923703,-61.2571,22.6126)"><text x="-46.665px" y="179.601px" style="font-family:'ConeWedge', 'Cone Wedge';font-size:36px;fill:#5e35b1;">o</text></g><g transform="matrix(0.772143,-0.635449,0.635449,0.772143,-92.5248,47.6216)"><text x="-20.296px" y="167.328px" style="font-family:'ConeWedge', 'Cone Wedge';font-size:36px;fill:#5e35b1;">r</text></g></g><g transform="matrix(1,0,0,1,224.943,76.982)"><g transform="matrix(0.00738208,-0.999973,0.999973,0.00738208,-285.778,-91.3598)"><text x="-188.907px" y="98.268px" style="font-family:'ConeWedge', 'Cone Wedge';font-size:36px;fill:#5e35b1;">D</text></g><g transform="matrix(0.13932,-0.990247,0.990247,0.13932,-233.153,-124.008)"><text x="-187.915px" y="72.122px" style="font-family:'ConeWedge', 'Cone Wedge';font-size:36px;fill:#5e35b1;">i</text></g><g transform="matrix(0.236299,-0.97168,0.97168,0.236299,-204.939,-132.663)"><text x="-186.865px" y="64.043px" style="font-family:'ConeWedge', 'Cone Wedge';font-size:36px;fill:#5e35b1;">s</text></g><g transform="matrix(0.391801,-0.92005,0.92005,0.391801,-154.329,-139.598)"><text x="-182.752px" y="46.932px" style="font-family:'ConeWedge', 'Cone Wedge';font-size:36px;fill:#5e35b1;">t</text></g><g transform="matrix(0.505857,-0.862617,0.862617,0.505857,-106.54,-136.614)"><text x="-172.512px" y="24.686px" style="font-family:'ConeWedge', 'Cone Wedge';font-size:36px;fill:#5e35b1;">i</text></g><g transform="matrix(0.614204,-0.789147,0.789147,0.614204,-78.6817,-126.35)"><text x="-168.566px" y="17.297px" style="font-family:'ConeWedge', 'Cone Wedge';font-size:36px;fill:#5e35b1;">n</text></g><g transform="matrix(0.765584,-0.643335,0.643335,0.765584,-34.2055,-98.9455)"><text x="-152.877px" y="-2.536px" style="font-family:'ConeWedge', 'Cone Wedge';font-size:36px;fill:#5e35b1;">c</text></g><g transform="matrix(0.885138,-0.465328,0.465328,0.885138,-5.31867,-63.006)"><text x="-130.284px" y="-20.73px" style="font-family:'ConeWedge', 'Cone Wedge';font-size:36px;fill:#5e35b1;">t</text></g><g transform="matrix(0.954027,-0.29972,0.29972,0.954027,4.58962,-33.8562)"><text x="-108.068px" y="-31.889px" style="font-family:'ConeWedge', 'Cone Wedge';font-size:36px;fill:#5e35b1;">l</text></g><g transform="matrix(0.990858,-0.13491,0.13491,0.990858,4.33296,-12.1699)"><text x="-87.629px" y="-38.056px" style="font-family:'ConeWedge', 'Cone Wedge';font-size:36px;fill:#5e35b1;">y</text></g><g transform="matrix(0.980573,0.196155,-0.196155,0.980573,-8.79504,8.2831)"><text x="-46.215px" y="-40.26px" style="font-family:'ConeWedge', 'Cone Wedge';font-size:36px;fill:#5e35b1;">D</text></g><g transform="matrix(0.94575,0.324895,-0.324895,0.94575,-12.2883,4.88606)"><text x="-20.775px" y="-34.353px" style="font-family:'ConeWedge', 'Cone Wedge';font-size:36px;fill:#5e35b1;">i</text></g><g transform="matrix(0.902651,0.430373,-0.430373,0.902651,-14.9589,2.44812)"><text x="-12.891px" y="-31.842px" style="font-family:'ConeWedge', 'Cone Wedge';font-size:36px;fill:#5e35b1;">f</text></g><g transform="matrix(0.817938,0.575307,-0.575307,0.817938,-11.7402,-7.67636)"><text x="6.258px" y="-22.387px" style="font-family:'ConeWedge', 'Cone Wedge';font-size:36px;fill:#5e35b1;">f</text></g><g transform="matrix(0.711355,0.702833,-0.702833,0.711355,-0.191307,-19.3657)"><text x="23.481px" y="-9.916px" style="font-family:'ConeWedge', 'Cone Wedge';font-size:36px;fill:#5e35b1;">e</text></g><g transform="matrix(0.572785,0.819705,-0.819705,0.572785,21.304,-29.2027)"><text x="38.668px" y="5.837px" style="font-family:'ConeWedge', 'Cone Wedge';font-size:36px;fill:#5e35b1;">r</text></g><g transform="matrix(0.453315,0.89135,-0.89135,0.453315,46.7185,-32.3041)"><text x="49.695px" y="21.934px" style="font-family:'ConeWedge', 'Cone Wedge';font-size:36px;fill:#5e35b1;">e</text></g><g transform="matrix(0.302405,0.953179,-0.953179,0.302405,80.9295,-27.762)"><text x="59.431px" y="41.409px" style="font-family:'ConeWedge', 'Cone Wedge';font-size:36px;fill:#5e35b1;">n</text></g><g transform="matrix(0.119338,0.992854,-0.992854,0.119338,123.759,-8.66069)"><text x="66.762px" y="65.432px" style="font-family:'ConeWedge', 'Cone Wedge';font-size:36px;fill:#5e35b1;">t</text></g></g><g transform="matrix(1,0,0,1,37.5,37.3824)"><text x="131.097px" y="128.791px" style="font-family:'ConeWedge', 'Cone Wedge';font-size:50px;fill:#5e35b1;">D</text><text x="112.097px" y="145.791px" style="font-family:'ConeWedge', 'Cone Wedge';font-size:100px;fill:#5e35b1;">D</text><text x="76.097px" y="179.791px" style="font-family:'ConeWedge', 'Cone Wedge';font-size:200px;fill:#5e35b1;">D</text></g></g></svg>