<?xml version="1.0" encoding="UTF-8" standalone="no"?><!DOCTYPE svg PUBLIC "-//W3C//DTD SVG 1.1//EN" "http://www.w3.org/Graphics/SVG/1.1/DTD/svg11.dtd"><svg width="100%" height="100%" viewBox="0 0 333 278" version="1.1" xmlns="http://www.w3.org/2000/svg" xmlns:xlink="http://www.w3.org/1999/xlink" xml:space="preserve" xmlns:serif="http://www.serif.com/" style="fill-rule:evenodd;clip-rule:evenodd;stroke-miterlimit:10;"><rect id="Artboard1" x="0" y="0" width="332.549" height="277.088" style="fill:none;"/><clipPath id="_clip1"><rect x="0" y="0" width="332.549" height="277.088"/></clipPath><g clip-path="url(#_clip1)"><g id="Layer-1" serif:id="Layer 1"><path d="M224.943,225.056l25.914,25.823c64.963,-65.194 29.371,-142.924 -0.153,-172.448c-47.343,-47.343 -125.257,-47.343 -172.6,0c-47.343,47.343 -47.343,125.258 0,172.601c0.051,0.051 0.102,0.102 0.153,0.153l25.823,-25.914c29.327,38.432 83.032,45.679 120.863,-0.215Z" style="fill:none;stroke:#5e35b1;stroke-width:5px;"/><g transform="matrix(1,0,0,1,224.943,76.982)"><g transform="matrix(-0.505182,-0.863013,0.863013,-0.505182,-389.594,102.37)"><text x="-165.45px" y="162.874px" style="font-family:'ConeWedge', 'Cone Wedge';font-size:36px;fill:#5e35b1;">D</text></g><g transform="matrix(-0.383324,-0.923614,0.923614,-0.383324,-375.354,29.0803)"><text x="-177.969px" y="139.848px" style="font-family:'ConeWedge', 'Cone Wedge';font-size:36px;fill:#5e35b1;">i</text></g><g transform="matrix(-0.289253,-0.957253,0.957253,-0.289253,-360.274,-2.7839)"><text x="-181.171px" y="132.357px" style="font-family:'ConeWedge', 'Cone Wedge';font-size:36px;fill:#5e35b1;">s</text></g><g transform="matrix(-0.130498,-0.991449,0.991449,-0.130498,-325.156,-54.0882)"><text x="-186.296px" y="115.537px" style="font-family:'ConeWedge', 'Cone Wedge';font-size:36px;fill:#5e35b1;">t</text></g><g transform="matrix(-0.00664388,-0.999978,0.999978,-0.00664388,-281.269,-96.9858)"><text x="-188.806px" y="91.21px" style="font-family:'ConeWedge', 'Cone Wedge';font-size:36px;fill:#5e35b1;">i</text></g><g transform="matrix(0.120199,-0.99275,0.99275,0.120199,-248.686,-114.931)"><text x="-189.186px" y="82.841px" style="font-family:'ConeWedge', 'Cone Wedge';font-size:36px;fill:#5e35b1;">n</text></g><g transform="matrix(0.321663,-0.946854,0.946854,0.321663,-180.91,-136.866)"><text x="-185.977px" y="57.828px" style="font-family:'ConeWedge', 'Cone Wedge';font-size:36px;fill:#5e35b1;">c</text></g><g transform="matrix(0.515279,-0.857023,0.857023,0.515279,-111.523,-136.096)"><text x="-176.075px" y="30.542px" style="font-family:'ConeWedge', 'Cone Wedge';font-size:36px;fill:#5e35b1;">t</text></g><g transform="matrix(0.661211,-0.7502,0.7502,0.661211,-62.2762,-118.973)"><text x="-162.863px" y="9.464px" style="font-family:'ConeWedge', 'Cone Wedge';font-size:36px;fill:#5e35b1;">l</text></g><g transform="matrix(0.779514,-0.626385,0.626385,0.779514,-28.7542,-94.4696)"><text x="-148.568px" y="-6.39px" style="font-family:'ConeWedge', 'Cone Wedge';font-size:36px;fill:#5e35b1;">y</text></g><g transform="matrix(0.944386,-0.328839,0.328839,0.944386,3.37444,-39.1665)"><text x="-114.106px" y="-29.56px" style="font-family:'ConeWedge', 'Cone Wedge';font-size:36px;fill:#5e35b1;">D</text></g><g transform="matrix(0.979834,-0.199812,0.199812,0.979834,5.67414,-18.5651)"><text x="-89.139px" y="-37.394px" style="font-family:'ConeWedge', 'Cone Wedge';font-size:36px;fill:#5e35b1;">i</text></g><g transform="matrix(0.996007,-0.0892718,0.0892718,0.996007,3.1774,-7.39634)"><text x="-81.098px" y="-39.22px" style="font-family:'ConeWedge', 'Cone Wedge';font-size:36px;fill:#5e35b1;">f</text></g><g transform="matrix(0.997328,0.0730548,-0.0730548,0.997328,-3.14369,4.26644)"><text x="-59.894px" y="-40.841px" style="font-family:'ConeWedge', 'Cone Wedge';font-size:36px;fill:#5e35b1;">f</text></g><g transform="matrix(0.972296,0.233751,-0.233751,0.972296,-10.1907,7.9673)"><text x="-38.708px" y="-39.009px" style="font-family:'ConeWedge', 'Cone Wedge';font-size:36px;fill:#5e35b1;">e</text></g><g transform="matrix(0.920798,0.390039,-0.390039,0.920798,-14.4817,4.21442)"><text x="-17.618px" y="-33.551px" style="font-family:'ConeWedge', 'Cone Wedge';font-size:36px;fill:#5e35b1;">r</text></g><g transform="matrix(0.847587,0.530657,-0.530657,0.847587,-13.5885,-4.12235)"><text x="0.382px" y="-25.717px" style="font-family:'ConeWedge', 'Cone Wedge';font-size:36px;fill:#5e35b1;">e</text></g><g transform="matrix(0.733276,0.679931,-0.679931,0.733276,-4.39928,-16.5444)"><text x="18.888px" y="-13.879px" style="font-family:'ConeWedge', 'Cone Wedge';font-size:36px;fill:#5e35b1;">n</text></g><g transform="matrix(0.573727,0.819047,-0.819047,0.573727,18.7984,-28.8486)"><text x="37.114px" y="3.635px" style="font-family:'ConeWedge', 'Cone Wedge';font-size:36px;fill:#5e35b1;">t</text></g><g transform="matrix(0.299882,0.953976,-0.953976,0.299882,80.8547,-27.8293)"><text x="59.387px" y="41.171px" style="font-family:'ConeWedge', 'Cone Wedge';font-size:36px;fill:#5e35b1;">D</text></g><g transform="matrix(0.125482,0.992096,-0.992096,0.125482,124.54,-8.06586)"><text x="66.845px" y="66.609px" style="font-family:'ConeWedge', 'Cone Wedge';font-size:36px;fill:#5e35b1;">e</text></g><g transform="matrix(-0.0871139,0.996198,-0.996198,-0.0871139,163.883,26.962)"><text x="69.588px" y="88.57px" style="font-family:'ConeWedge', 'Cone Wedge';font-size:36px;fill:#5e35b1;">c</text></g><g transform="matrix(-0.342785,0.939414,-0.939414,-0.342785,200.084,95.7293)"><text x="66.556px" y="117.854px" style="font-family:'ConeWedge', 'Cone Wedge';font-size:36px;fill:#5e35b1;">o</text></g><g transform="matrix(-0.529976,0.848012,-0.848012,-0.529976,208.375,176.642)"><text x="55.234px" y="146.068px" style="font-family:'ConeWedge', 'Cone Wedge';font-size:36px;fill:#5e35b1;">r</text></g></g><g transform="matrix(1,0,0,1,37.5,37.3824)"><text x="131.097px" y="128.791px" style="font-family:'ConeWedge', 'Cone Wedge';font-size:50px;fill:#5e35b1;">D</text><text x="112.097px" y="145.791px" style="font-family:'ConeWedge', 'Cone Wedge';font-size:100px;fill:#5e35b1;">D</text><text x="76.097px" y="179.791px" style="font-family:'ConeWedge', 'Cone Wedge';font-size:200px;fill:#5e35b1;">D</text></g></g></g></svg>